<svg width="512" height="305" viewBox="0 0 512 305" fill="none" xmlns="http://www.w3.org/2000/svg">
<path d="M-3.05176e-05 40.4521L487.24 103.003L508.09 264.319L81.7552 304.922L-3.05176e-05 40.4521Z" fill="#26A9BE"/>
<path d="M106.716 120.062L110.582 119.887L115.366 130.928L119.179 119.497L123.045 119.322L118.086 133.63L124.239 146.706L133.907 118.649L138.365 118.447L126.318 151.352L122.77 151.512L115.667 136.566L109.898 152.095L106.35 152.256L91.4252 120.571L95.8371 120.372L108.046 147.439L112.947 133.863L106.716 120.062ZM165.807 145.918L165.972 149.557L144.049 150.549L142.587 118.256L164.101 117.282L164.265 120.921L146.845 121.709L147.319 132.17L162.465 131.485L162.619 134.896L147.473 135.582L147.977 146.725L165.807 145.918ZM190.033 116.108L193.49 115.952L208.142 147.648L203.776 147.846L199.527 138.558L185.973 139.172L182.626 148.803L178.259 149.001L190.033 116.108ZM198.473 135.415L191.976 120.76L186.647 135.951L198.473 135.415ZM212.452 147.453L210.99 115.16L224.818 114.534C226.243 114.469 227.56 114.713 228.77 115.266C229.979 115.789 231.046 116.531 231.97 117.492C232.894 118.422 233.626 119.498 234.167 120.719C234.708 121.91 235.006 123.142 235.064 124.416C235.131 125.902 234.907 127.325 234.391 128.685C233.906 130.044 233.169 131.217 232.181 132.203C231.222 133.189 230.069 133.894 228.721 134.32L237.105 146.337L232.465 146.547L224.572 135.282L216.021 135.669L216.546 147.268L212.452 147.453ZM215.856 132.031L225.635 131.588C226.757 131.537 227.714 131.19 228.505 130.547C229.325 129.872 229.939 129.008 230.348 127.957C230.786 126.904 230.979 125.786 230.925 124.603C230.87 123.39 230.547 122.296 229.956 121.32C229.364 120.314 228.614 119.527 227.707 118.961C226.8 118.394 225.816 118.135 224.755 118.183L215.249 118.613L215.856 132.031ZM264.104 141.469L264.269 145.108L242.345 146.1L240.884 113.807L262.398 112.833L262.562 116.471L245.142 117.26L245.616 127.721L260.762 127.036L260.916 130.447L245.77 131.133L246.274 142.276L264.104 141.469ZM139.907 183.08L142.108 231.72L132.723 232.145L131.783 211.387L109.724 212.386L110.664 233.143L101.21 233.571L99.008 184.931L108.462 184.503L109.352 204.165L131.411 203.166L130.521 183.505L139.907 183.08ZM152.255 231.261L150.054 182.621L159.508 182.193L161.709 230.833L152.255 231.261ZM171.858 230.374L169.656 181.733L191.167 180.76C193.405 180.658 195.481 181.022 197.395 181.851C199.355 182.677 201.055 183.836 202.495 185.327C203.981 186.816 205.133 188.503 205.95 190.388C206.814 192.271 207.291 194.217 207.382 196.227C207.475 198.282 207.199 200.285 206.555 202.236C205.955 204.14 205.025 205.83 203.764 207.305C202.504 208.781 201.001 209.948 199.255 210.805L211.181 228.594L200.768 229.065L190.028 213.213L180.574 213.641L181.312 229.946L171.858 230.374ZM180.198 205.352L192.05 204.815C193.238 204.761 194.273 204.371 195.155 203.645C196.035 202.873 196.723 201.881 197.217 200.668C197.711 199.456 197.925 198.119 197.859 196.658C197.789 195.105 197.408 193.772 196.717 192.659C196.024 191.501 195.16 190.602 194.124 189.962C193.134 189.32 192.068 189.025 190.926 189.077L179.485 189.595L180.198 205.352ZM217.418 228.311L215.216 179.671L224.67 179.243L226.872 227.883L217.418 228.311ZM245.06 195.757L246.474 226.996L237.02 227.424L234.818 178.784L242.354 178.443L268.947 209.366L267.499 177.373L276.953 176.946L279.152 225.517L271.273 225.874L245.06 195.757ZM309.495 224.487C306.344 224.63 303.323 224.126 300.434 222.975C297.59 221.822 295.044 220.176 292.796 218.035C290.592 215.846 288.828 213.272 287.504 210.311C286.18 207.351 285.439 204.112 285.279 200.595C285.129 197.261 285.581 194.106 286.636 191.129C287.689 188.107 289.238 185.428 291.283 183.093C293.329 180.758 295.761 178.886 298.58 177.477C301.4 176.068 304.499 175.287 307.879 175.134C312.446 174.927 316.396 175.732 319.727 177.549C323.102 179.319 325.684 181.765 327.473 184.887L320.653 190.413C319.31 188.049 317.491 186.277 315.195 185.1C312.945 183.92 310.518 183.389 307.915 183.507C305.86 183.6 304.007 184.119 302.356 185.063C300.706 186.007 299.298 187.261 298.133 188.824C296.968 190.387 296.087 192.166 295.491 194.161C294.941 196.154 294.715 198.246 294.814 200.438C294.92 202.768 295.359 204.899 296.133 206.831C296.953 208.762 298.035 210.429 299.38 211.833C300.771 213.235 302.354 214.33 304.128 215.119C305.901 215.863 307.838 216.187 309.939 216.092C312.405 215.98 314.728 215.234 316.908 213.854C319.134 212.472 321.173 210.503 323.025 207.948L323.447 217.265C319.581 221.834 314.93 224.241 309.495 224.487ZM322.225 205.445L312.429 205.888L312.116 198.969L329.722 198.172L330.854 223.177L323.044 223.53L322.225 205.445ZM338.974 204.481L337.578 173.652L346.758 173.237L348.154 204.065L338.974 204.481ZM339.802 222.772L339.333 212.427L348.513 212.012L348.981 222.356L339.802 222.772Z" fill="white"/>
<path d="M44.1445 45.4565L60.0096 2L509.75 175.826L458.706 290.33H243" stroke="#19415E" stroke-width="2.75914"/>
</svg>
